<svg xmlns="http://www.w3.org/2000/svg" version="1.1" xmlns:xlink="http://www.w3.org/1999/xlink" xmlns:svgjs="http://svgjs.com/svgjs" width="1440" height="566" preserveAspectRatio="none" viewBox="0 0 1440 566"><g mask="url(&quot;#SvgjsMask3588&quot;)" fill="none"><rect width="1440" height="566" x="0" y="0" fill="url(#SvgjsLinearGradient3589)"></rect><path d="M1440 0L890.09 0L1440 192.9z" fill="rgba(255, 255, 255, .1)"></path><path d="M890.09 0L1440 192.9L1440 350.77L588.1500000000001 0z" fill="rgba(255, 255, 255, .075)"></path><path d="M588.1500000000001 0L1440 350.77L1440 435.36L411.1300000000001 0z" fill="rgba(255, 255, 255, .05)"></path><path d="M411.1300000000001 0L1440 435.36L1440 481.06L208.7000000000001 0z" fill="rgba(255, 255, 255, .025)"></path><path d="M0 566L69.87 566L0 311.89z" fill="rgba(0, 0, 0, .1)"></path><path d="M0 311.89L69.87 566L620.38 566L0 239.29z" fill="rgba(0, 0, 0, .075)"></path><path d="M0 239.28999999999996L620.38 566L882.62 566L0 153.76999999999998z" fill="rgba(0, 0, 0, .05)"></path><path d="M0 153.76999999999998L882.62 566L1265.68 566L0 91.23999999999998z" fill="rgba(0, 0, 0, .025)"></path></g><defs><mask id="SvgjsMask3588"><rect width="1440" height="566" fill="#ffffff"></rect></mask><linearGradient x1="15.17%" y1="138.6%" x2="84.83%" y2="-38.6%" gradientUnits="userSpaceOnUse" id="SvgjsLinearGradient3589"><stop stop-color="#0e2a47" offset="0"></stop><stop stop-color="rgba(7, 26, 51, 1)" offset="0.31"></stop><stop stop-color="rgba(9, 54, 113, 1)" offset="0.5"></stop><stop stop-color="rgba(7, 26, 51, 1)" offset="0.65"></stop><stop stop-color="rgba(7, 26, 51, 1)" offset="1"></stop></linearGradient></defs></svg>